<?xml version="1.0" encoding="UTF-8" standalone="no"?>
<!-- Created with Inkscape (http://www.inkscape.org/) -->

<svg
   width="103.8463mm"
   height="110.20203mm"
   viewBox="0 0 103.8463 110.20203"
   version="1.1"
   id="svg5"
   inkscape:version="1.2 (dc2aedaf03, 2022-05-15)"
   sodipodi:docname="show-rules.svg"
   xmlns:inkscape="http://www.inkscape.org/namespaces/inkscape"
   xmlns:sodipodi="http://sodipodi.sourceforge.net/DTD/sodipodi-0.dtd"
   xmlns="http://www.w3.org/2000/svg"
   xmlns:svg="http://www.w3.org/2000/svg">
  <sodipodi:namedview
     id="namedview7"
     pagecolor="#ffffff"
     bordercolor="#000000"
     borderopacity="0.25"
     inkscape:showpageshadow="2"
     inkscape:pageopacity="0.0"
     inkscape:pagecheckerboard="0"
     inkscape:deskcolor="#d1d1d1"
     inkscape:document-units="mm"
     showgrid="false"
     inkscape:zoom="0.78127806"
     inkscape:cx="193.27306"
     inkscape:cy="3.8398621"
     inkscape:window-width="2560"
     inkscape:window-height="1057"
     inkscape:window-x="-8"
     inkscape:window-y="-8"
     inkscape:window-maximized="1"
     inkscape:current-layer="layer1" />
  <defs
     id="defs2" />
  <g
     inkscape:label="Livello 1"
     inkscape:groupmode="layer"
     id="layer1"
     transform="translate(-53.846066,-39.283922)">
    <path
       d="m 131.85924,39.630074 v 0 c 0.72831,2.70515 2.70514,4.9941 5.30623,6.24262 v 0 c -2.60109,1.24852 -4.47388,3.53751 -5.30623,6.24262 v 0 c -0.7283,-2.70511 -2.70513,-4.9941 -5.30623,-6.24262 v 0 c 2.6011,-1.24852 4.57793,-3.53747 5.30623,-6.24262 z"
       id="path9"
       style="stroke-width:1.04044" />
    <path
       d="m 65.271304,62.519704 v 0 c 0.728308,2.70511 2.705137,4.9941 5.306227,6.24262 v 0 c -2.60109,1.24852 -4.473876,3.53747 -5.306227,6.24262 v 0 c -0.728304,-2.70515 -2.705132,-4.9941 -5.306226,-6.24262 v 0 c 2.601094,-1.24852 4.577922,-3.53751 5.306226,-6.24262 z"
       id="path11"
       style="stroke-width:1.04044" />
    <path
       d="m 75.571626,41.710964 v 0 c 0.624262,2.28894 2.288964,4.16173 4.369834,5.20219 v 0 c -2.184917,1.04043 -3.745572,2.91321 -4.369834,5.20216 v 0 c -0.624261,-2.28895 -2.288959,-4.16173 -4.369833,-5.20216 v 0 c 2.080874,-1.04046 3.745572,-2.91325 4.369833,-5.20219 z"
       id="path13"
       style="stroke-width:1.04044" />
    <path
       d="m 144.24044,58.357934 v 0 c 0.62426,2.28899 2.28896,4.16177 4.36983,5.20219 v 0 c -2.18492,1.04043 -3.74557,2.91321 -4.36983,5.2022 v 0 c -0.62426,-2.28899 -2.28896,-4.16177 -4.36984,-5.2022 v 0 c 2.08088,-1.04042 3.74558,-2.9132 4.36984,-5.20219 z"
       id="path15"
       style="stroke-width:1.04044" />
    <path
       d="m 104.91193,78.646464 c -0.83235,0 -1.56065,-0.72831 -1.56065,-1.56067 v -10.40436 c 0,-0.83236 0.7283,-1.56067 1.56065,-1.56067 0.83236,0 1.56066,0.72831 1.56066,1.56067 v 10.40436 c 0,0.83236 -0.7283,1.56067 -1.56066,1.56067 z"
       id="path17"
       style="stroke-width:1.04044" />
    <path
       d="m 104.91193,61.999454 c -0.83235,0 -1.56065,-0.72827 -1.56065,-1.56063 v -8.32351 c 0,-0.83232 0.7283,-1.56064 1.56065,-1.56064 0.83236,0 1.56066,0.72832 1.56066,1.56064 v 8.32351 c 0,0.83236 -0.7283,1.56063 -1.56066,1.56063 z"
       id="path19"
       style="stroke-width:1.04044" />
    <path
       d="m 104.91193,47.433364 c -0.83235,0 -1.56065,-0.72831 -1.56065,-1.56067 v -4.16173 c 0,-0.83237 0.7283,-1.56068 1.56065,-1.56068 0.83236,0 1.56066,0.72831 1.56066,1.56068 v 4.16173 c 0,0.83236 -0.7283,1.56067 -1.56066,1.56067 z"
       id="path21"
       style="stroke-width:1.04044" />
    <path
       d="m 116.35674,71.363384 c -0.10405,0 -0.2081,0 -0.31215,0 -0.83233,-0.20802 -1.35255,-1.04042 -1.14446,-1.87279 l 1.76874,-8.1154 c 0.2081,-0.83232 1.04043,-1.35254 1.87279,-1.14448 0.83234,0.20803 1.35256,1.04047 1.14447,1.87279 l -1.76874,8.11541 c -0.2081,0.62426 -0.83235,1.14447 -1.56065,1.14447 z"
       id="path23"
       style="stroke-width:1.04044" />
    <path
       d="m 119.47805,57.109404 c -0.10405,0 -0.2081,0 -0.31215,0 -0.83233,-0.20802 -1.35255,-1.04042 -1.14446,-1.87278 v 0 l 1.35256,-6.13857 c 0.2081,-0.83236 0.93639,-1.35257 1.87279,-1.24852 0.83235,0.20802 1.35257,0.93641 1.24852,1.87278 0,0 0,0 0,0.10421 l -1.35256,6.13857 c -0.31212,0.62426 -0.9364,1.14447 -1.6647,1.14447 z"
       id="path25"
       style="stroke-width:1.04044" />
    <path
       d="m 126.7611,69.282534 c -0.83235,0 -1.56065,-0.72831 -1.56065,-1.56067 0,-0.31223 0.10405,-0.62426 0.31211,-0.93638 l 7.07497,-10.30034 c 0.52024,-0.72831 1.45663,-0.83232 2.18494,-0.31223 0.62426,0.52022 0.83234,1.35258 0.41617,2.08085 l -7.07497,10.30034 c -0.31211,0.52021 -0.83235,0.72831 -1.35257,0.72831 z"
       id="path27"
       style="stroke-width:1.04044" />
    <path
       d="m 93.467139,71.363384 c -0.728309,0 -1.352571,-0.52021 -1.560655,-1.24852 l -2.184917,-10.19626 c -0.208101,-0.83236 0.416173,-1.66472 1.248524,-1.87278 0.832346,-0.20802 1.664697,0.31223 1.768739,1.14447 l 2.184917,10.19629 c 0.208101,0.83233 -0.31215,1.66469 -1.144477,1.87279 -0.104051,0.10421 -0.208101,0.10421 -0.312112,0.10421 z"
       id="path29"
       style="stroke-width:1.04044" />
    <path
       d="m 89.929652,55.132574 c -0.728305,0 -1.352567,-0.52021 -1.560655,-1.24853 l -0.832347,-4.05768 c -0.2081,-0.83236 0.312111,-1.66468 1.144478,-1.87278 0.83235,-0.20803 1.664701,0.31223 1.872785,1.14447 0,0 0,0 0,0.10421 l 0.832351,4.05768 c 0.208101,0.83236 -0.312111,1.66472 -1.144481,1.87279 v 0 c -0.104051,0 -0.208101,0 -0.312112,0 z"
       id="path31"
       style="stroke-width:1.04044" />
    <path
       d="m 83.06277,69.282534 c -0.520216,0 -1.040435,-0.20802 -1.248524,-0.62426 L 74.73928,58.357934 c -0.416177,-0.72831 -0.208101,-1.66469 0.520215,-2.1849 0.728309,-0.4162 1.560655,-0.31223 2.080875,0.41616 l 7.07497,10.30035 c 0.520216,0.72827 0.312112,1.66468 -0.416177,2.18489 -0.312111,0.10421 -0.624262,0.20802 -0.936393,0.20802 z"
       id="path33"
       style="stroke-width:1.04044" />
    <path
       d="m 150.48306,122.76096 -3.12131,-33.710146 c -0.10405,-1.04042 -1.04044,-1.87278 -2.08088,-1.87278 -0.41617,0 -1.04043,0 -1.56065,0 l -0.52022,-6.03452 -1.87278,-0.10421 c -1.56066,-0.10421 -3.12131,0 -4.57793,0.10421 l -0.52022,-5.61836 -1.56065,-0.31223 c -10.92458,-1.35257 -21.84917,2.28899 -29.75649,9.98819 -7.907306,-7.6992 -18.831893,-11.34076 -29.756477,-9.98819 l -1.560655,0.31223 -0.520219,5.61836 c -1.560655,-0.10421 -3.017264,-0.20802 -4.577919,-0.10421 l -1.768743,0.10421 -0.52022,6.03452 c -0.624262,0 -1.144478,0 -1.560655,0 -1.040435,0 -1.976828,0.83236 -2.08087,1.87278 l -3.12131,33.710146 c -0.208101,1.14447 0.624262,2.18494 1.768739,2.28895 0.104051,0 0.208101,0 0.312151,0 6.346666,-0.20802 24.138132,0.20802 38.600198,9.67608 0.7283,0.41616 1.45661,0.72831 2.28896,0.72831 h 5.20218 c 0.83235,0 1.56066,-0.20802 2.18492,-0.62426 15.19037,-9.46798 32.46162,-9.88414 38.60019,-9.67608 1.14448,0 2.08088,-0.83232 2.18492,-1.97684 -0.10405,-0.31223 -0.10405,-0.31223 -0.10405,-0.41616 z M 106.99281,88.946764 c 6.65879,-6.86688 15.91868,-10.40435 25.38665,-9.88414 l 2.80918,32.253526 c -4.89005,0.93641 -17.58338,4.05772 -28.19583,13.21355 z m -29.548398,-9.78009 c 9.467976,-0.52021 18.727862,3.01726 25.386648,9.88414 V 124.63375 C 92.218615,115.47792 79.525287,112.35661 74.635234,111.4202 Z m -9.988191,38.496136 3.12131,-32.565666 c 0.624262,0 1.35257,0.10421 2.184917,0.10421 l -2.601091,29.756506 1.976829,0.20802 c 0.2081,0 17.791466,2.28899 30.068614,14.46208 v 0 C 88.577085,119.22361 73.38671,117.87103 67.456221,117.66293 Z m 40.160849,12.17313 v 0 c 12.48524,-12.27718 29.96458,-14.67017 30.06862,-14.67017 l 1.97683,-0.20802 -2.60109,-29.756516 c 0.83235,-0.10421 1.56065,-0.10421 2.18491,-0.10421 l 3.12131,32.565676 c -5.93049,0.20802 -21.12086,1.66468 -34.75058,12.17312 z"
       id="path35"
       style="stroke-width:1.04044" />
    <text
       xml:space="preserve"
       style="font-size:14.1111px;font-family:cour;-inkscape-font-specification:cour;fill:#000000;stroke:#ffffff;stroke-width:0.264999;stroke-opacity:0"
       x="54.096848"
       y="149.09851"
       id="text268"><tspan
         sodipodi:role="line"
         id="tspan266"
         style="font-style:normal;font-variant:normal;font-weight:bold;font-stretch:normal;font-size:14.1111px;font-family:'Century Gothic';-inkscape-font-specification:'Century Gothic Bold';fill:#000000;stroke-width:0.265"
         x="54.096848"
         y="149.09851">REGOLAMENTO</tspan></text>
  </g>
</svg>
